<mxfile host="app.diagrams.net" agent="Mozilla/5.0 (Windows NT 10.0; Win64; x64) AppleWebKit/537.36 (KHTML, like Gecko) Chrome/140.0.0.0 Safari/537.36 Edg/140.0.0.0" version="28.2.5">
  <diagram name="Página-1" id="octTjZgT6ajWqZy0w_TR">
    <mxGraphModel dx="1418" dy="820" grid="1" gridSize="10" guides="1" tooltips="1" connect="1" arrows="1" fold="1" page="1" pageScale="1" pageWidth="827" pageHeight="1169" math="0" shadow="0">
      <root>
        <mxCell id="0" />
        <mxCell id="1" parent="0" />
        <mxCell id="xvuBSvF8aRwpspHv6nea-4" value="" style="edgeStyle=orthogonalEdgeStyle;rounded=0;orthogonalLoop=1;jettySize=auto;html=1;" edge="1" parent="1" source="xvuBSvF8aRwpspHv6nea-1" target="xvuBSvF8aRwpspHv6nea-3">
          <mxGeometry relative="1" as="geometry" />
        </mxCell>
        <mxCell id="xvuBSvF8aRwpspHv6nea-1" value="Ínicio" style="ellipse;whiteSpace=wrap;html=1;" vertex="1" parent="1">
          <mxGeometry x="354" width="120" height="80" as="geometry" />
        </mxCell>
        <mxCell id="xvuBSvF8aRwpspHv6nea-2" value="Fim" style="ellipse;whiteSpace=wrap;html=1;" vertex="1" parent="1">
          <mxGeometry x="340" y="660" width="120" height="80" as="geometry" />
        </mxCell>
        <mxCell id="xvuBSvF8aRwpspHv6nea-6" value="" style="edgeStyle=orthogonalEdgeStyle;rounded=0;orthogonalLoop=1;jettySize=auto;html=1;" edge="1" parent="1" source="xvuBSvF8aRwpspHv6nea-3" target="xvuBSvF8aRwpspHv6nea-5">
          <mxGeometry relative="1" as="geometry" />
        </mxCell>
        <mxCell id="xvuBSvF8aRwpspHv6nea-3" value="Ler N" style="shape=parallelogram;perimeter=parallelogramPerimeter;whiteSpace=wrap;html=1;fixedSize=1;" vertex="1" parent="1">
          <mxGeometry x="354" y="110" width="120" height="60" as="geometry" />
        </mxCell>
        <mxCell id="xvuBSvF8aRwpspHv6nea-7" style="edgeStyle=orthogonalEdgeStyle;rounded=0;orthogonalLoop=1;jettySize=auto;html=1;entryX=0.431;entryY=0.05;entryDx=0;entryDy=0;entryPerimeter=0;" edge="1" parent="1" source="xvuBSvF8aRwpspHv6nea-5" target="xvuBSvF8aRwpspHv6nea-9">
          <mxGeometry relative="1" as="geometry">
            <mxPoint x="140" y="660" as="targetPoint" />
          </mxGeometry>
        </mxCell>
        <mxCell id="xvuBSvF8aRwpspHv6nea-8" value="Não" style="edgeLabel;html=1;align=center;verticalAlign=middle;resizable=0;points=[];" vertex="1" connectable="0" parent="xvuBSvF8aRwpspHv6nea-7">
          <mxGeometry x="-0.8042" y="-3" relative="1" as="geometry">
            <mxPoint as="offset" />
          </mxGeometry>
        </mxCell>
        <mxCell id="xvuBSvF8aRwpspHv6nea-13" value="" style="edgeStyle=orthogonalEdgeStyle;rounded=0;orthogonalLoop=1;jettySize=auto;html=1;" edge="1" parent="1" source="xvuBSvF8aRwpspHv6nea-5" target="xvuBSvF8aRwpspHv6nea-12">
          <mxGeometry relative="1" as="geometry" />
        </mxCell>
        <mxCell id="xvuBSvF8aRwpspHv6nea-14" value="Sim" style="edgeLabel;html=1;align=center;verticalAlign=middle;resizable=0;points=[];" vertex="1" connectable="0" parent="xvuBSvF8aRwpspHv6nea-13">
          <mxGeometry y="-2" relative="1" as="geometry">
            <mxPoint as="offset" />
          </mxGeometry>
        </mxCell>
        <mxCell id="xvuBSvF8aRwpspHv6nea-5" value="N&amp;gt;0" style="rhombus;whiteSpace=wrap;html=1;" vertex="1" parent="1">
          <mxGeometry x="100" y="190" width="80" height="80" as="geometry" />
        </mxCell>
        <mxCell id="xvuBSvF8aRwpspHv6nea-10" style="edgeStyle=orthogonalEdgeStyle;rounded=0;orthogonalLoop=1;jettySize=auto;html=1;entryX=0;entryY=0.5;entryDx=0;entryDy=0;" edge="1" parent="1" source="xvuBSvF8aRwpspHv6nea-9" target="xvuBSvF8aRwpspHv6nea-2">
          <mxGeometry relative="1" as="geometry" />
        </mxCell>
        <mxCell id="xvuBSvF8aRwpspHv6nea-9" value="Escrever &quot;Meteste água. Aguarda processo de secagem&quot;" style="shape=parallelogram;perimeter=parallelogramPerimeter;whiteSpace=wrap;html=1;fixedSize=1;" vertex="1" parent="1">
          <mxGeometry x="70" y="670" width="170" height="60" as="geometry" />
        </mxCell>
        <mxCell id="xvuBSvF8aRwpspHv6nea-26" value="" style="edgeStyle=orthogonalEdgeStyle;rounded=0;orthogonalLoop=1;jettySize=auto;html=1;" edge="1" parent="1" source="xvuBSvF8aRwpspHv6nea-12" target="xvuBSvF8aRwpspHv6nea-25">
          <mxGeometry relative="1" as="geometry" />
        </mxCell>
        <mxCell id="xvuBSvF8aRwpspHv6nea-27" value="Sim" style="edgeLabel;html=1;align=center;verticalAlign=middle;resizable=0;points=[];" vertex="1" connectable="0" parent="xvuBSvF8aRwpspHv6nea-26">
          <mxGeometry x="-0.05" y="-3" relative="1" as="geometry">
            <mxPoint as="offset" />
          </mxGeometry>
        </mxCell>
        <mxCell id="xvuBSvF8aRwpspHv6nea-36" style="edgeStyle=orthogonalEdgeStyle;rounded=0;orthogonalLoop=1;jettySize=auto;html=1;entryX=0.5;entryY=0;entryDx=0;entryDy=0;" edge="1" parent="1" source="xvuBSvF8aRwpspHv6nea-12" target="xvuBSvF8aRwpspHv6nea-17">
          <mxGeometry relative="1" as="geometry" />
        </mxCell>
        <mxCell id="xvuBSvF8aRwpspHv6nea-37" value="Não" style="edgeLabel;html=1;align=center;verticalAlign=middle;resizable=0;points=[];" vertex="1" connectable="0" parent="xvuBSvF8aRwpspHv6nea-36">
          <mxGeometry x="-0.4105" y="-3" relative="1" as="geometry">
            <mxPoint as="offset" />
          </mxGeometry>
        </mxCell>
        <mxCell id="xvuBSvF8aRwpspHv6nea-12" value="N&amp;gt;17" style="rhombus;whiteSpace=wrap;html=1;" vertex="1" parent="1">
          <mxGeometry x="230" y="360" width="80" height="80" as="geometry" />
        </mxCell>
        <mxCell id="xvuBSvF8aRwpspHv6nea-23" style="edgeStyle=orthogonalEdgeStyle;rounded=0;orthogonalLoop=1;jettySize=auto;html=1;entryX=0.5;entryY=0;entryDx=0;entryDy=0;" edge="1" parent="1" source="xvuBSvF8aRwpspHv6nea-15" target="xvuBSvF8aRwpspHv6nea-2">
          <mxGeometry relative="1" as="geometry">
            <Array as="points">
              <mxPoint x="550" y="640" />
              <mxPoint x="400" y="640" />
            </Array>
          </mxGeometry>
        </mxCell>
        <mxCell id="xvuBSvF8aRwpspHv6nea-15" value="Escrever &quot;Velhinho&quot;" style="shape=parallelogram;perimeter=parallelogramPerimeter;whiteSpace=wrap;html=1;fixedSize=1;" vertex="1" parent="1">
          <mxGeometry x="480" y="525" width="140" height="60" as="geometry" />
        </mxCell>
        <mxCell id="xvuBSvF8aRwpspHv6nea-22" style="edgeStyle=orthogonalEdgeStyle;rounded=0;orthogonalLoop=1;jettySize=auto;html=1;" edge="1" parent="1" source="xvuBSvF8aRwpspHv6nea-16">
          <mxGeometry relative="1" as="geometry">
            <mxPoint x="400" y="660" as="targetPoint" />
          </mxGeometry>
        </mxCell>
        <mxCell id="xvuBSvF8aRwpspHv6nea-16" value="Escrever &quot;Adulto&quot;" style="shape=parallelogram;perimeter=parallelogramPerimeter;whiteSpace=wrap;html=1;fixedSize=1;" vertex="1" parent="1">
          <mxGeometry x="340" y="525" width="120" height="60" as="geometry" />
        </mxCell>
        <mxCell id="xvuBSvF8aRwpspHv6nea-21" style="edgeStyle=orthogonalEdgeStyle;rounded=0;orthogonalLoop=1;jettySize=auto;html=1;" edge="1" parent="1" source="xvuBSvF8aRwpspHv6nea-17" target="xvuBSvF8aRwpspHv6nea-2">
          <mxGeometry relative="1" as="geometry">
            <Array as="points">
              <mxPoint x="260" y="640" />
              <mxPoint x="400" y="640" />
            </Array>
          </mxGeometry>
        </mxCell>
        <mxCell id="xvuBSvF8aRwpspHv6nea-17" value="Escrever &quot;Puto&quot;" style="shape=parallelogram;perimeter=parallelogramPerimeter;whiteSpace=wrap;html=1;fixedSize=1;" vertex="1" parent="1">
          <mxGeometry x="200" y="525" width="120" height="60" as="geometry" />
        </mxCell>
        <mxCell id="xvuBSvF8aRwpspHv6nea-24" style="edgeStyle=orthogonalEdgeStyle;rounded=0;orthogonalLoop=1;jettySize=auto;html=1;" edge="1" parent="1" source="xvuBSvF8aRwpspHv6nea-20">
          <mxGeometry relative="1" as="geometry">
            <mxPoint x="400" y="660" as="targetPoint" />
            <Array as="points">
              <mxPoint x="720" y="640" />
              <mxPoint x="400" y="640" />
            </Array>
          </mxGeometry>
        </mxCell>
        <mxCell id="xvuBSvF8aRwpspHv6nea-20" value="Escrever &quot;Dinossauro&quot;" style="shape=parallelogram;perimeter=parallelogramPerimeter;whiteSpace=wrap;html=1;fixedSize=1;" vertex="1" parent="1">
          <mxGeometry x="650" y="525" width="140" height="60" as="geometry" />
        </mxCell>
        <mxCell id="xvuBSvF8aRwpspHv6nea-30" value="" style="edgeStyle=orthogonalEdgeStyle;rounded=0;orthogonalLoop=1;jettySize=auto;html=1;" edge="1" parent="1" source="xvuBSvF8aRwpspHv6nea-25" target="xvuBSvF8aRwpspHv6nea-29">
          <mxGeometry relative="1" as="geometry" />
        </mxCell>
        <mxCell id="xvuBSvF8aRwpspHv6nea-31" value="Sim" style="edgeLabel;html=1;align=center;verticalAlign=middle;resizable=0;points=[];" vertex="1" connectable="0" parent="xvuBSvF8aRwpspHv6nea-30">
          <mxGeometry x="-0.1026" relative="1" as="geometry">
            <mxPoint as="offset" />
          </mxGeometry>
        </mxCell>
        <mxCell id="xvuBSvF8aRwpspHv6nea-35" style="edgeStyle=orthogonalEdgeStyle;rounded=0;orthogonalLoop=1;jettySize=auto;html=1;entryX=0.5;entryY=0;entryDx=0;entryDy=0;" edge="1" parent="1" source="xvuBSvF8aRwpspHv6nea-25" target="xvuBSvF8aRwpspHv6nea-16">
          <mxGeometry relative="1" as="geometry" />
        </mxCell>
        <mxCell id="xvuBSvF8aRwpspHv6nea-38" value="Não" style="edgeLabel;html=1;align=center;verticalAlign=middle;resizable=0;points=[];" vertex="1" connectable="0" parent="xvuBSvF8aRwpspHv6nea-35">
          <mxGeometry x="-0.5914" y="1" relative="1" as="geometry">
            <mxPoint as="offset" />
          </mxGeometry>
        </mxCell>
        <mxCell id="xvuBSvF8aRwpspHv6nea-25" value="N&amp;gt;65" style="rhombus;whiteSpace=wrap;html=1;" vertex="1" parent="1">
          <mxGeometry x="354" y="360" width="76" height="80" as="geometry" />
        </mxCell>
        <mxCell id="xvuBSvF8aRwpspHv6nea-32" style="edgeStyle=orthogonalEdgeStyle;rounded=0;orthogonalLoop=1;jettySize=auto;html=1;entryX=0.5;entryY=0;entryDx=0;entryDy=0;" edge="1" parent="1" source="xvuBSvF8aRwpspHv6nea-29" target="xvuBSvF8aRwpspHv6nea-20">
          <mxGeometry relative="1" as="geometry" />
        </mxCell>
        <mxCell id="xvuBSvF8aRwpspHv6nea-33" value="Sim" style="edgeLabel;html=1;align=center;verticalAlign=middle;resizable=0;points=[];" vertex="1" connectable="0" parent="xvuBSvF8aRwpspHv6nea-32">
          <mxGeometry x="-0.3647" y="-1" relative="1" as="geometry">
            <mxPoint as="offset" />
          </mxGeometry>
        </mxCell>
        <mxCell id="xvuBSvF8aRwpspHv6nea-34" style="edgeStyle=orthogonalEdgeStyle;rounded=0;orthogonalLoop=1;jettySize=auto;html=1;entryX=0.5;entryY=0;entryDx=0;entryDy=0;" edge="1" parent="1" source="xvuBSvF8aRwpspHv6nea-29" target="xvuBSvF8aRwpspHv6nea-15">
          <mxGeometry relative="1" as="geometry" />
        </mxCell>
        <mxCell id="xvuBSvF8aRwpspHv6nea-39" value="Não" style="edgeLabel;html=1;align=center;verticalAlign=middle;resizable=0;points=[];" vertex="1" connectable="0" parent="xvuBSvF8aRwpspHv6nea-34">
          <mxGeometry x="-0.2" relative="1" as="geometry">
            <mxPoint as="offset" />
          </mxGeometry>
        </mxCell>
        <mxCell id="xvuBSvF8aRwpspHv6nea-29" value="N&amp;gt;149" style="rhombus;whiteSpace=wrap;html=1;" vertex="1" parent="1">
          <mxGeometry x="510" y="360" width="80" height="80" as="geometry" />
        </mxCell>
      </root>
    </mxGraphModel>
  </diagram>
</mxfile>
